<?xml version="1.0" standalone="no"?>
<!DOCTYPE svg PUBLIC "-//W3C//DTD SVG 20010904//EN"
 "http://www.w3.org/TR/2001/REC-SVG-20010904/DTD/svg10.dtd">
<svg version="1.0" xmlns="http://www.w3.org/2000/svg"
 width="720.000000pt" height="720.000000pt" viewBox="0 0 720.000000 720.000000"
 preserveAspectRatio="xMidYMid meet">
<metadata>
Created by potrace 1.11, written by Peter Selinger 2001-2013
</metadata>
<g transform="translate(0.000000,720.000000) scale(0.100000,-0.100000)"
fill="#000000" stroke="none">
<path d="M1581 7133 c-29 -56 -66 -201 -108 -428 -37 -198 -39 -448 -5 -615
48 -235 115 -404 236 -600 104 -169 274 -354 541 -589 40 -36 175 -138 239
-181 28 -19 55 -40 59 -47 4 -7 14 -13 21 -13 7 0 21 -9 31 -20 10 -11 21 -20
25 -20 4 0 54 -31 111 -68 97 -64 301 -189 394 -243 72 -40 89 -51 126 -72 20
-12 92 -55 160 -95 182 -107 443 -265 492 -298 23 -16 50 -33 59 -39 9 -5 38
-23 65 -40 l48 -30 255 -1 c153 -1 281 -6 320 -13 61 -12 222 -38 264 -44 10
-1 21 3 23 8 3 9 -35 67 -92 140 -8 11 -32 43 -53 70 -64 86 -192 219 -306
318 -33 29 -69 61 -82 72 -12 11 -32 27 -44 35 -13 8 -46 33 -74 56 -72 57
-315 237 -351 260 -16 10 -32 21 -35 24 -3 3 -23 17 -45 32 -22 14 -80 54
-130 89 -49 34 -137 95 -195 134 -306 207 -476 331 -661 480 -281 226 -544
489 -701 698 -24 32 -67 89 -95 128 -29 38 -53 71 -53 73 0 2 -26 46 -59 97
-83 135 -231 433 -231 468 0 6 -4 11 -9 11 -5 0 -12 16 -15 35 -4 19 -13 47
-21 62 -8 15 -15 36 -15 45 0 10 -9 37 -19 60 -11 24 -22 51 -25 61 -3 9 -12
17 -20 17 -9 0 -19 -8 -25 -17z"/>
<path d="M5100 4814 c-87 -24 -199 -59 -235 -74 -101 -41 -166 -55 -279 -57
-66 -2 -121 -5 -124 -8 -10 -10 24 -58 65 -92 30 -25 59 -38 102 -46 34 -6 61
-15 61 -18 0 -7 -8 -10 -117 -51 -35 -13 -63 -28 -63 -34 0 -6 33 -39 74 -73
122 -103 313 -316 422 -471 70 -100 70 -100 131 -213 28 -51 54 -86 61 -85 8
2 25 30 39 63 13 33 31 74 39 92 8 17 14 36 14 42 0 6 4 19 9 29 5 9 24 46 41
82 17 36 41 81 53 100 48 81 176 230 196 230 5 0 11 3 13 8 6 15 84 69 127 87
32 14 67 20 120 19 64 0 83 -4 121 -27 83 -50 90 -52 101 -36 21 34 -3 133
-44 177 -58 63 -185 102 -327 102 -106 0 -117 -3 -225 -57 l-70 -35 -65 30
c-52 24 -61 32 -45 37 11 3 43 15 71 26 37 14 89 22 194 27 99 5 145 11 147
19 6 16 -89 116 -145 155 -24 17 -71 41 -105 54 -84 33 -234 32 -357 -2z"/>
<path d="M1104 4804 c-4 -14 -1 -69 5 -122 38 -307 110 -534 227 -709 41 -61
178 -223 196 -231 4 -2 25 -20 47 -40 60 -55 62 -56 151 -117 67 -45 229 -130
335 -176 87 -38 303 -103 435 -132 30 -7 60 -15 65 -18 6 -4 44 -12 85 -19 41
-7 86 -17 100 -22 14 -6 61 -16 105 -24 44 -7 116 -20 160 -28 215 -40 217
-40 236 -15 10 13 24 35 31 49 53 104 184 248 291 321 80 56 78 60 -36 90 -40
10 -133 34 -207 54 -74 20 -171 44 -215 54 -44 11 -123 31 -175 45 -157 44
-243 67 -275 76 -34 9 -109 35 -175 60 -25 10 -60 21 -77 25 -18 3 -35 11 -38
16 -4 5 -13 9 -22 9 -59 0 -608 279 -658 335 -5 6 -30 24 -55 41 -25 16 -49
34 -55 40 -5 5 -30 26 -55 46 -86 69 -211 196 -349 356 -30 34 -58 62 -62 62
-5 0 -12 -11 -15 -26z"/>
<path d="M4155 3610 c-73 -8 -227 -56 -298 -91 -122 -61 -255 -174 -340 -288
-49 -67 -122 -209 -143 -280 -70 -242 -54 -532 41 -736 99 -211 282 -360 510
-415 135 -33 393 -31 560 4 282 58 278 54 311 300 8 61 20 140 25 176 12 77 5
212 -15 272 -8 24 -17 60 -20 80 -4 20 -13 50 -21 65 -8 15 -15 31 -15 35 0
20 -81 186 -109 224 -9 12 -23 32 -31 44 -89 136 -308 322 -408 350 -97 26
-260 -74 -366 -224 -51 -73 -59 -91 -43 -104 13 -11 80 -37 137 -53 85 -24
261 -95 343 -138 139 -72 247 -153 345 -260 44 -47 102 -125 102 -136 0 -4 6
-13 13 -20 41 -47 42 -48 27 -53 -24 -8 -70 -62 -76 -91 -27 -110 -102 -224
-190 -287 -114 -80 -313 -103 -449 -52 -251 93 -379 259 -439 564 -22 113 -22
386 0 457 32 103 56 163 82 207 15 25 29 50 32 56 9 20 74 88 120 125 100 81
220 119 375 119 163 0 272 -38 354 -123 34 -36 34 -38 40 -149 l6 -113 51 -3
c33 -2 54 2 61 10 10 13 46 207 65 351 14 115 11 122 -64 135 -35 6 -96 18
-135 26 -89 18 -343 28 -438 16z"/>
<path d="M4971 3473 c-14 -74 -41 -291 -41 -335 0 -47 -15 -58 -77 -58 -72 0
-76 -15 -30 -104 89 -174 125 -303 138 -491 10 -159 14 -177 37 -173 22 4 66
154 88 298 9 58 20 115 25 128 15 37 21 250 10 337 -17 141 -39 248 -66 335
-15 47 -29 93 -32 103 -3 9 -13 17 -23 17 -13 0 -20 -14 -29 -57z"/>
<path d="M1374 3015 c-6 -13 55 -145 108 -235 66 -113 201 -263 303 -335 85
-60 233 -135 267 -135 7 0 33 -7 57 -16 174 -60 539 -62 851 -4 30 5 82 13
115 16 73 8 89 18 74 46 -6 11 -13 101 -16 199 -4 112 -10 182 -17 188 -7 6
-48 6 -106 0 -164 -17 -588 -22 -717 -10 -128 13 -280 37 -328 51 -16 5 -68
21 -115 35 -47 14 -105 35 -130 46 -25 11 -65 30 -90 40 -25 11 -54 25 -65 31
-11 7 -33 18 -50 27 -16 8 -32 17 -35 20 -3 3 -27 16 -53 29 -41 19 -48 20
-53 7z"/>
<path d="M3736 2784 c-18 -17 -21 -118 -6 -214 5 -30 12 -77 16 -104 l7 -49
136 6 c296 12 515 -38 679 -154 47 -34 68 -33 77 4 6 24 -23 107 -37 107 -5 0
-8 5 -8 11 0 27 -103 142 -190 211 -91 73 -261 147 -390 169 -185 32 -262 35
-284 13z"/>
<path d="M4045 2313 c-109 -12 -215 -44 -215 -64 0 -20 58 -94 118 -151 66
-63 90 -70 159 -44 120 44 157 50 302 49 156 -2 188 5 171 37 -9 16 -141 110
-155 110 -2 0 -30 12 -61 26 -81 37 -202 51 -319 37z"/>
<path d="M4980 2001 c0 -10 7 -35 15 -55 22 -52 29 -169 16 -254 -18 -115 -63
-233 -201 -527 -61 -129 -94 -203 -114 -255 -10 -25 -23 -56 -28 -70 -34 -87
-51 -181 -52 -300 -1 -154 22 -232 102 -340 53 -71 163 -182 176 -177 10 4 10
30 0 119 -7 62 -13 147 -13 190 -1 97 27 350 39 362 6 6 10 18 10 27 0 23 138
400 181 494 20 44 67 205 84 284 26 127 14 203 -56 346 -39 80 -74 127 -119
158 -31 22 -40 21 -40 -2z"/>
<path d="M3205 1981 c-183 -86 -394 -156 -580 -193 -78 -15 -352 -21 -415 -9
-107 20 -180 23 -180 8 0 -20 195 -183 277 -233 38 -22 104 -52 148 -67 72
-24 95 -27 221 -27 111 0 153 4 200 19 32 10 74 22 92 26 18 4 45 13 60 21 15
8 33 14 40 14 15 0 175 73 287 132 44 23 94 48 112 57 48 22 50 40 6 76 -54
43 -143 129 -143 137 0 18 -45 58 -64 58 -12 0 -39 -9 -61 -19z"/>
<path d="M4940 1754 c-8 -8 -48 -31 -89 -51 -68 -31 -93 -52 -236 -196 -238
-240 -311 -327 -361 -432 -27 -57 -29 -67 -29 -190 0 -128 1 -131 34 -200 36
-73 58 -102 68 -91 4 4 10 30 14 59 9 69 26 135 44 174 8 17 15 37 16 45 0 21
79 151 145 240 66 88 221 271 235 276 5 2 9 8 9 13 0 5 9 19 20 32 33 36 45
50 65 82 81 124 128 255 93 255 -9 0 -21 -7 -28 -16z"/>
<path d="M4515 1631 c-11 -5 -76 -11 -145 -15 -112 -6 -129 -10 -162 -33 -47
-32 -107 -97 -144 -154 -27 -41 -29 -51 -29 -149 0 -131 13 -141 68 -51 77
123 181 213 363 311 44 24 86 49 95 56 8 8 21 14 27 14 7 0 12 7 12 15 0 17
-50 20 -85 6z"/>
</g>
</svg>
